<?xml version="1.0" encoding="UTF-8" standalone="no"?><!DOCTYPE svg PUBLIC "-//W3C//DTD SVG 1.1//EN" "http://www.w3.org/Graphics/SVG/1.1/DTD/svg11.dtd"><svg width="100%" height="100%" viewBox="0 0 442 405" version="1.1" xmlns="http://www.w3.org/2000/svg" xmlns:xlink="http://www.w3.org/1999/xlink" xml:space="preserve" xmlns:serif="http://www.serif.com/" style="fill-rule:evenodd;clip-rule:evenodd;stroke-linejoin:round;stroke-miterlimit:2;"><g id="Logo-completa" serif:id="Logo completa"><g><path d="M130.329,77.495c11.033,28.159 33.561,48.857 60.879,56.894c-10.868,-27.402 -33.382,-48.69 -60.879,-56.894m173.152,-0.484c-28.57,7.804 -51.856,29.451 -62.89,57.776c28.061,-7.843 51.733,-29.211 62.89,-57.776m-78.623,168.58c-2.728,0 -4.954,-2.304 -4.984,-5.17c-0.514,-50.093 5.457,-87.787 5.518,-88.163c0.246,-1.41 0.518,-2.807 0.815,-4.197c-6.78,0.658 -13.75,0.59 -20.474,-0.151c0.253,1.17 0.486,2.344 0.702,3.527l0.131,0.798c0.066,0.399 6.036,38.093 5.523,88.186c-0.03,2.883 -2.348,5.139 -5.04,5.17c-2.753,-0.031 -4.961,-2.397 -4.933,-5.284c0.504,-49.169 -5.321,-85.941 -5.378,-86.307l-0.113,-0.689c-0.443,-2.42 -0.97,-4.813 -1.58,-7.17c-36.274,-8.039 -65.999,-35.893 -77.225,-74.303c-0.511,-1.744 -0.125,-3.675 1.032,-5.039c1.155,-1.364 2.893,-2.023 4.61,-1.703c36.963,7.062 67.371,35.152 79.323,71.885c8.583,1.333 17.647,1.442 26.323,0.217c12.087,-37.591 43.175,-65.846 81.165,-72.365c1.711,-0.29 3.463,0.348 4.595,1.702c1.134,1.36 1.558,3.225 1.057,4.954c-11.127,38.532 -42.217,67.189 -79.071,74.939c-0.641,2.508 -1.189,5.059 -1.641,7.644c-0.046,0.292 -5.87,37.133 -5.366,86.235c0.028,2.887 -2.18,5.253 -4.933,5.284l-0.056,0Z" style="fill:#638c1b;fill-rule:nonzero;"/><path d="M196.917,45.395c-4.227,9.171 -2.628,20.158 4.02,27.42c4.033,4.406 9.381,6.832 15.058,6.835l0.004,-0c5.676,-0 11.022,-2.424 15.056,-6.827c0.004,-0.006 0.007,-0.008 0.01,-0.013c6.687,-7.251 8.285,-18.231 4.015,-27.407l-19.084,-30.619l-19.079,30.611Zm19.082,44.707l-0.007,0c-8.418,-0.002 -16.321,-3.571 -22.25,-10.052c-9.619,-10.504 -11.881,-26.409 -5.63,-39.575c0.086,-0.184 0.183,-0.359 0.289,-0.53l23.42,-37.578c0.922,-1.475 2.491,-2.367 4.175,-2.367c1.684,-0 3.254,0.892 4.175,2.367l23.421,37.578c0.103,0.165 0.197,0.336 0.282,0.514c6.314,13.187 4.049,29.108 -5.635,39.612c-5.93,6.468 -13.828,10.031 -22.24,10.031" style="fill:#c3922e;fill-rule:nonzero;"/><path d="M33.665,278.798c-0,-1.397 0.629,-2.412 1.904,-3.047c1.267,-0.631 2.699,-0.948 4.288,-0.948c1.525,0 2.937,0.317 4.24,0.948c1.299,0.635 1.953,1.65 1.953,3.047l0,46.75c0,4.195 -0.589,7.74 -1.76,10.637c-1.178,2.896 -2.798,5.244 -4.864,7.043c-2.066,1.797 -4.494,3.113 -7.286,3.946c-2.799,0.832 -5.785,1.248 -8.96,1.248c-3.238,-0 -6.24,-0.416 -9.003,-1.248c-2.764,-0.833 -5.18,-2.149 -7.242,-3.946c-2.065,-1.799 -3.686,-4.147 -4.861,-7.043c-1.173,-2.897 -1.762,-6.442 -1.762,-10.637l-0,-46.75c-0,-1.397 0.632,-2.412 1.904,-3.047c1.271,-0.631 2.703,-0.948 4.292,-0.948c1.525,0 2.936,0.317 4.236,0.948c1.303,0.635 1.952,1.65 1.952,3.047l0,46.75c0,3.929 0.924,6.828 2.768,8.689c1.839,1.866 4.413,2.798 7.716,2.798c3.304,-0 5.878,-0.932 7.718,-2.798c1.843,-1.861 2.767,-4.76 2.767,-8.689l-0,-46.75Z" style="fill:#638c1b;fill-rule:nonzero;"/><path d="M84.929,337.036c2.856,-0 5.349,-0.699 7.479,-2.097c2.126,-1.4 3.191,-3.597 3.191,-6.593c0,-2.463 -0.762,-4.478 -2.287,-6.045c-1.525,-1.562 -3.413,-2.963 -5.672,-4.195c-2.251,-1.23 -4.7,-2.412 -7.334,-3.545c-2.638,-1.131 -5.083,-2.549 -7.338,-4.246c-2.255,-1.698 -4.143,-3.81 -5.668,-6.344c-1.524,-2.529 -2.291,-5.759 -2.291,-9.688c0,-3.73 0.702,-6.859 2.098,-9.389c1.396,-2.532 3.195,-4.578 5.385,-6.145c2.191,-1.563 4.667,-2.695 7.435,-3.395c2.76,-0.701 5.51,-1.049 8.237,-1.049c1.401,-0 3.131,0.099 5.196,0.3c2.066,0.199 4.051,0.597 5.955,1.199c1.908,0.598 3.541,1.414 4.909,2.446c1.367,1.033 2.049,2.383 2.049,4.045c-0,0.601 -0.096,1.283 -0.286,2.049c-0.193,0.765 -0.492,1.516 -0.904,2.248c-0.415,0.732 -0.94,1.349 -1.573,1.847c-0.637,0.499 -1.367,0.748 -2.195,0.748c-0.758,0 -1.492,-0.198 -2.19,-0.598c-0.698,-0.399 -1.524,-0.833 -2.477,-1.298c-0.952,-0.465 -2.114,-0.901 -3.477,-1.301c-1.368,-0.396 -3.038,-0.598 -5.007,-0.598c-3.429,-0 -6.083,0.683 -7.955,2.05c-1.871,1.363 -2.808,3.245 -2.808,5.643c0,2.064 0.759,3.745 2.284,5.044c1.525,1.299 3.413,2.481 5.671,3.547c2.252,1.065 4.7,2.182 7.334,3.344c2.639,1.167 5.083,2.664 7.343,4.495c2.25,1.834 4.142,4.129 5.667,6.893c1.525,2.763 2.288,6.31 2.288,10.637c0,3.597 -0.573,6.744 -1.715,9.441c-1.142,2.696 -2.715,4.944 -4.716,6.743c-2,1.797 -4.385,3.164 -7.148,4.096c-2.763,0.93 -5.801,1.397 -9.1,1.397c-3.115,0 -6.02,-0.366 -8.722,-1.096c-2.699,-0.734 -5.035,-1.7 -7.004,-2.9c-1.968,-1.197 -3.509,-2.529 -4.619,-3.994c-1.112,-1.466 -1.666,-2.93 -1.666,-4.395c0,-0.665 0.142,-1.416 0.428,-2.248c0.283,-0.831 0.682,-1.599 1.191,-2.298c0.508,-0.699 1.077,-1.282 1.714,-1.747c0.637,-0.465 1.335,-0.699 2.097,-0.699c0.953,-0 1.889,0.399 2.809,1.197c0.923,0.8 1.967,1.684 3.146,2.648c1.178,0.967 2.574,1.848 4.195,2.647c1.618,0.798 3.635,1.199 6.051,1.199" style="fill:#638c1b;fill-rule:nonzero;"/><path d="M155.92,321.753l-8.294,-30.668l-8.286,30.668l16.58,-0Zm-26.972,26.07c-0.822,-0 -1.698,-0.134 -2.617,-0.401c-0.924,-0.262 -1.764,-0.631 -2.525,-1.098c-0.763,-0.465 -1.4,-1.032 -1.908,-1.698c-0.509,-0.664 -0.759,-1.398 -0.759,-2.197c-0,-0.134 0.06,-0.465 0.19,-1l18.39,-62.831c0.445,-1.531 1.428,-2.645 2.953,-3.345c1.526,-0.699 3.179,-1.049 4.954,-1.049c1.845,-0 3.526,0.35 5.051,1.049c1.525,0.7 2.509,1.814 2.953,3.345l18.395,62.831c0.125,0.535 0.19,0.866 0.19,1c-0,0.799 -0.255,1.516 -0.763,2.148c-0.508,0.632 -1.145,1.2 -1.904,1.698c-0.766,0.499 -1.605,0.885 -2.525,1.147c-0.924,0.267 -1.799,0.401 -2.622,0.401c-1.081,-0 -1.985,-0.198 -2.719,-0.599c-0.726,-0.399 -1.223,-1.066 -1.476,-1.997l-3.619,-13.288l-21.821,0l-3.622,13.288c-0.255,0.931 -0.75,1.598 -1.476,1.997c-0.735,0.401 -1.638,0.599 -2.72,0.599" style="fill:#638c1b;fill-rule:nonzero;"/><path d="M226.734,314.758l-21.441,-0l0,28.669c0,1.332 -0.649,2.347 -1.952,3.047c-1.303,0.7 -2.715,1.049 -4.24,1.049c-1.589,-0 -3.017,-0.349 -4.291,-1.049c-1.268,-0.7 -1.905,-1.715 -1.905,-3.047l0,-64.929c0,-1.398 0.637,-2.412 1.905,-3.047c1.274,-0.632 2.702,-0.948 4.291,-0.948c1.525,0 2.937,0.316 4.24,0.948c1.303,0.635 1.952,1.649 1.952,3.047l0,26.071l21.441,0l0,-26.071c0,-1.398 0.634,-2.412 1.905,-3.047c1.27,-0.632 2.702,-0.948 4.292,-0.948c1.524,0 2.937,0.316 4.235,0.948c1.304,0.635 1.958,1.649 1.958,3.047l-0,64.929c-0,1.332 -0.654,2.347 -1.958,3.047c-1.298,0.7 -2.711,1.049 -4.235,1.049c-1.59,-0 -3.022,-0.349 -4.292,-1.049c-1.271,-0.7 -1.905,-1.715 -1.905,-3.047l0,-28.669Z" style="fill:#d19000;fill-rule:nonzero;"/><path d="M144.333,404.312c-0.906,-0 -1.63,-0.215 -2.172,-0.644c-0.541,-0.43 -0.812,-0.936 -0.812,-1.519l0,-29.258c0,-0.736 0.315,-1.288 0.944,-1.656c0.629,-0.368 1.31,-0.552 2.04,-0.552l8.998,-0c1.462,-0 2.867,0.23 4.212,0.69c1.346,0.46 2.443,1.28 3.291,2.461c0.849,1.181 1.273,2.86 1.273,5.037c-0,1.871 -0.329,3.412 -0.987,4.624c-0.659,1.211 -1.573,2.078 -2.743,2.599c0.907,0.337 1.697,0.79 2.37,1.357c0.673,0.568 1.2,1.327 1.58,2.277c0.381,0.951 0.57,2.193 0.57,3.727l0,0.966c0,2.423 -0.387,4.355 -1.162,5.796c-0.776,1.442 -1.829,2.485 -3.161,3.129c-1.331,0.644 -2.83,0.966 -4.498,0.966l-9.743,-0Zm3.818,-6.257l4.389,0c1.112,0 1.976,-0.337 2.59,-1.012c0.614,-0.675 0.921,-1.748 0.921,-3.22l0,-0.736c0,-1.564 -0.307,-2.661 -0.921,-3.29c-0.614,-0.628 -1.478,-0.943 -2.59,-0.943l-4.389,0l0,9.201Zm0,-14.721l4.609,-0c0.848,-0 1.477,-0.338 1.886,-1.012c0.41,-0.675 0.616,-1.396 0.616,-2.162c-0,-0.552 -0.096,-1.074 -0.286,-1.565c-0.19,-0.49 -0.468,-0.889 -0.834,-1.196c-0.366,-0.307 -0.826,-0.46 -1.382,-0.46l-4.609,0l0,6.395Z" style="fill:#d19000;fill-rule:nonzero;"/><path d="M189.843,404.588c-0.439,-0 -0.855,-0.1 -1.25,-0.299c-0.396,-0.2 -0.71,-0.545 -0.944,-1.035l-6.013,-12.238l-2.896,0l-0,11.088c-0,0.736 -0.359,1.288 -1.075,1.656c-0.717,0.368 -1.499,0.552 -2.348,0.552c-0.848,-0 -1.631,-0.184 -2.348,-0.552c-0.716,-0.368 -1.075,-0.92 -1.075,-1.656l-0,-29.259c-0,-0.583 0.19,-1.089 0.571,-1.518c0.379,-0.43 0.891,-0.644 1.535,-0.644l9.084,-0c2.019,-0 3.84,0.299 5.464,0.897c1.625,0.598 2.919,1.61 3.884,3.036c0.966,1.426 1.449,3.397 1.449,5.912c-0,1.717 -0.227,3.197 -0.681,4.439c-0.453,1.242 -1.082,2.262 -1.887,3.059c-0.804,0.798 -1.719,1.411 -2.743,1.84l5.355,10.167c0.088,0.123 0.145,0.261 0.176,0.414c0.028,0.154 0.043,0.292 0.043,0.414c-0,0.583 -0.219,1.166 -0.659,1.749c-0.438,0.582 -0.987,1.058 -1.645,1.426c-0.658,0.368 -1.324,0.552 -1.997,0.552Zm-11.103,-19.092l4.344,-0c1.23,-0 2.195,-0.314 2.897,-0.943c0.703,-0.629 1.053,-1.741 1.053,-3.335c0,-1.626 -0.35,-2.745 -1.053,-3.359c-0.702,-0.613 -1.667,-0.92 -2.897,-0.92l-4.344,0l-0,8.557Z" style="fill:#d19000;fill-rule:nonzero;"/><path d="M205.159,404.312c-0.614,-0 -1.265,-0.131 -1.952,-0.391c-0.688,-0.261 -1.266,-0.614 -1.734,-1.058c-0.468,-0.445 -0.703,-0.944 -0.703,-1.496c0,-0.092 0.03,-0.26 0.089,-0.506l8.162,-28.062c0.235,-0.797 0.79,-1.395 1.668,-1.794c0.878,-0.399 1.814,-0.598 2.809,-0.598c1.024,-0 1.967,0.199 2.83,0.598c0.863,0.399 1.412,0.997 1.646,1.794l8.207,28.062c0.059,0.246 0.088,0.414 0.088,0.506c-0,0.552 -0.235,1.051 -0.702,1.496c-0.469,0.444 -1.04,0.797 -1.713,1.058c-0.673,0.26 -1.33,0.391 -1.974,0.391c-0.556,-0 -1.032,-0.1 -1.426,-0.299c-0.395,-0.2 -0.666,-0.545 -0.812,-1.035l-1.492,-5.751l-9.261,0l-1.491,5.751c-0.118,0.49 -0.381,0.835 -0.791,1.035c-0.409,0.199 -0.892,0.299 -1.448,0.299Zm5.135,-12.605l6.407,-0l-3.203,-12.329l-3.204,12.329Z" style="fill:#d19000;fill-rule:nonzero;"/><path d="M243.296,404.772c-1.901,-0 -3.657,-0.292 -5.266,-0.874c-1.609,-0.583 -2.896,-1.327 -3.863,-2.232c-0.965,-0.904 -1.448,-1.863 -1.448,-2.875c0,-0.521 0.133,-1.081 0.396,-1.679c0.263,-0.598 0.622,-1.112 1.075,-1.541c0.453,-0.429 0.958,-0.644 1.513,-0.644c0.528,-0 1.018,0.168 1.471,0.506c0.454,0.337 0.951,0.736 1.492,1.196c0.541,0.46 1.171,0.859 1.887,1.196c0.717,0.337 1.587,0.506 2.612,0.506c0.673,0 1.338,-0.1 1.996,-0.299c0.658,-0.199 1.2,-0.521 1.623,-0.966c0.426,-0.445 0.638,-1.035 0.638,-1.771c0,-0.798 -0.249,-1.48 -0.747,-2.047c-0.497,-0.568 -1.163,-1.081 -1.997,-1.541c-0.834,-0.461 -1.741,-0.928 -2.72,-1.404c-0.981,-0.475 -1.968,-0.996 -2.963,-1.564c-0.994,-0.567 -1.909,-1.242 -2.743,-2.024c-0.833,-0.782 -1.499,-1.725 -1.997,-2.829c-0.497,-1.104 -0.746,-2.423 -0.746,-3.956c0,-1.718 0.322,-3.183 0.966,-4.394c0.643,-1.211 1.507,-2.193 2.589,-2.944c1.082,-0.751 2.29,-1.304 3.621,-1.656c1.331,-0.353 2.684,-0.529 4.059,-0.529c0.585,-0 1.36,0.046 2.326,0.138c0.966,0.092 1.937,0.276 2.919,0.552c0.978,0.276 1.806,0.682 2.479,1.219c0.673,0.536 1.011,1.25 1.011,2.139c0,0.399 -0.096,0.897 -0.286,1.495c-0.192,0.598 -0.483,1.127 -0.88,1.587c-0.392,0.46 -0.912,0.69 -1.558,0.69c-0.525,0 -1.015,-0.145 -1.469,-0.437c-0.454,-0.291 -1.023,-0.583 -1.711,-0.874c-0.688,-0.291 -1.632,-0.437 -2.831,-0.437c-1.024,0 -1.865,0.13 -2.523,0.391c-0.659,0.261 -1.134,0.598 -1.426,1.012c-0.293,0.414 -0.44,0.867 -0.44,1.357c0,0.645 0.249,1.204 0.747,1.68c0.497,0.475 1.162,0.92 1.996,1.334c0.834,0.414 1.741,0.843 2.721,1.288c0.98,0.445 1.968,0.966 2.962,1.564c0.996,0.598 1.91,1.311 2.743,2.139c0.834,0.828 1.499,1.84 1.997,3.036c0.498,1.197 0.747,2.623 0.747,4.279c-0,2.208 -0.476,4.071 -1.427,5.589c-0.952,1.518 -2.246,2.669 -3.883,3.451c-1.639,0.782 -3.526,1.173 -5.662,1.173Z" style="fill:#d19000;fill-rule:nonzero;"/><path d="M266.512,404.312c-0.848,-0 -1.632,-0.184 -2.349,-0.552c-0.715,-0.368 -1.075,-0.92 -1.075,-1.656l0,-29.259c0,-0.767 0.36,-1.319 1.075,-1.656c0.717,-0.338 1.501,-0.506 2.349,-0.506c0.848,-0 1.63,0.168 2.347,0.506c0.717,0.337 1.075,0.889 1.075,1.656l-0,29.259c-0,0.736 -0.358,1.288 -1.075,1.656c-0.717,0.368 -1.499,0.552 -2.347,0.552Z" style="fill:#d19000;fill-rule:nonzero;"/><path d="M283.1,404.312c-0.732,-0 -1.413,-0.184 -2.041,-0.552c-0.629,-0.368 -0.944,-0.92 -0.944,-1.656l-0,-29.259c-0,-0.767 0.36,-1.319 1.077,-1.656c0.717,-0.338 1.499,-0.506 2.347,-0.506c0.848,-0 1.632,0.168 2.349,0.506c0.717,0.337 1.075,0.889 1.075,1.656l-0,25.21l10.006,0c0.673,0 1.168,0.322 1.491,0.966c0.323,0.644 0.483,1.365 0.483,2.162c0,0.767 -0.16,1.48 -0.483,2.14c-0.323,0.659 -0.818,0.989 -1.491,0.989l-13.869,-0Z" style="fill:#d19000;fill-rule:nonzero;"/><path d="M272.261,305.87l14.482,-0c1.275,-0 2.244,0.533 2.909,1.597c0.666,1.068 1.001,2.266 1.001,3.597c-0,1.133 -0.318,2.247 -0.952,3.346c-0.638,1.1 -1.619,1.648 -2.958,1.648l-14.482,-0l-0,20.077l26.968,0c1.27,0 2.238,0.583 2.909,1.75c0.665,1.164 0.998,2.513 0.998,4.045c0,1.333 -0.323,2.598 -0.951,3.797c-0.636,1.198 -1.62,1.796 -2.956,1.796l-33.922,0c-1.4,0 -2.655,-0.348 -3.769,-1.048c-1.107,-0.7 -1.662,-1.716 -1.662,-3.047l0,-64.829c0,-1.33 0.555,-2.347 1.662,-3.047c1.114,-0.697 2.369,-1.048 3.769,-1.048l33.922,0c1.336,0 2.32,0.6 2.956,1.799c0.628,1.199 0.951,2.463 0.951,3.795c0,1.533 -0.333,2.883 -0.998,4.045c-0.671,1.167 -1.639,1.748 -2.909,1.748l-26.968,0l-0,19.979Z" style="fill:#d19000;fill-rule:nonzero;"/><path d="M351.546,321.251c-0.508,0.999 -1.146,1.684 -1.908,2.049c-0.762,0.367 -1.521,0.548 -2.288,0.548c-0.759,-0 -1.508,-0.181 -2.238,-0.548c-0.73,-0.365 -1.353,-1.05 -1.861,-2.049l-10.955,-21.574l0,43.75c0,1.332 -0.653,2.348 -1.952,3.047c-1.304,0.7 -2.719,1.049 -4.245,1.049c-1.585,-0 -3.018,-0.349 -4.285,-1.049c-1.274,-0.699 -1.903,-1.715 -1.903,-3.047l0,-62.431c0,-2.398 0.629,-4.079 1.903,-5.045c1.267,-0.964 2.7,-1.448 4.285,-1.448c1.146,0 2.13,0.084 2.958,0.249c0.826,0.167 1.6,0.501 2.334,1c0.728,0.5 1.445,1.199 2.143,2.098c0.697,0.898 1.432,2.082 2.191,3.545l11.722,22.375l11.724,-22.375c0.756,-1.463 1.489,-2.647 2.186,-3.545c0.703,-0.899 1.415,-1.598 2.145,-2.098c0.732,-0.499 1.526,-0.833 2.381,-1c0.863,-0.165 1.864,-0.249 3.005,-0.249c1.585,0 3.012,0.484 4.289,1.448c1.265,0.966 1.903,2.647 1.903,5.045l0,62.431c0,1.332 -0.653,2.348 -1.952,3.047c-1.301,0.7 -2.719,1.049 -4.24,1.049c-1.59,-0 -3.02,-0.349 -4.287,-1.049c-1.277,-0.699 -1.905,-1.715 -1.905,-3.047l-0,-42.954l-11.15,20.778Z" style="fill:#d19000;fill-rule:nonzero;"/><path d="M408.431,285.891l-0,24.174l10.669,0c3.113,0 5.559,-0.933 7.344,-2.798c1.772,-1.862 2.664,-4.759 2.664,-8.689l0,-1.2c0,-3.928 -0.892,-6.825 -2.664,-8.689c-1.785,-1.865 -4.231,-2.798 -7.344,-2.798l-10.669,0Zm-12.39,-7.392c0,-1.063 0.412,-1.998 1.243,-2.797c0.823,-0.8 1.969,-1.199 3.429,-1.199l19.154,0c3.049,0 5.874,0.399 8.48,1.199c2.605,0.799 4.89,2.097 6.86,3.896c1.965,1.798 3.505,4.129 4.62,6.993c1.114,2.863 1.671,6.326 1.671,10.388l-0,0.599c-0,4.13 -0.574,7.625 -1.718,10.488c-1.142,2.865 -2.727,5.196 -4.76,6.993c-2.034,1.798 -4.418,3.114 -7.149,3.946c-2.736,0.832 -5.658,1.249 -8.771,1.249l-10.669,-0l-0,23.174c-0,1.331 -0.651,2.347 -1.952,3.046c-1.304,0.701 -2.717,1.049 -4.24,1.049c-1.59,-0 -3.018,-0.348 -4.295,-1.049c-1.264,-0.699 -1.903,-1.715 -1.903,-3.046l0,-64.929Z" style="fill:#d19000;fill-rule:nonzero;"/><path d="M113.891,147.198c28.634,7.82 51.959,29.541 62.949,57.865c-28.299,-7.797 -51.862,-29.463 -62.949,-57.865m79.912,90.735c-0.985,-9.566 -1.776,-15.156 -1.836,-15.561c-7.845,-44.884 -41.952,-79.988 -84.634,-87.309c-1.739,-0.424 -3.546,0.166 -4.758,1.527c-1.214,1.362 -1.642,3.298 -1.128,5.083c11.029,38.193 41.895,67.339 79.1,75.004c0.617,2.432 1.145,4.904 1.584,7.407c0.007,0.045 0.543,3.844 1.268,10.39l-178.913,-0c-2.395,-0 -4.338,2.036 -4.338,4.548c-0,2.512 1.943,4.548 4.338,4.548l183.228,-0c0.366,0.089 0.739,0.151 1.126,0.151c0.179,0 0.359,-0.009 0.54,-0.031c2.739,-0.31 4.718,-2.887 4.423,-5.757" style="fill:#638c1b;fill-rule:nonzero;"/><path d="M318.132,147.198c-11.086,28.392 -34.638,50.053 -62.925,57.858c11.022,-28.363 34.327,-50.048 62.925,-57.858m118.776,87.275l-188.288,-0c0.715,-6.463 1.243,-10.219 1.243,-10.219l-0,0.001c0.446,-2.563 0.991,-5.094 1.624,-7.583c37.199,-7.667 68.057,-36.812 79.088,-74.999c0.498,-1.728 0.074,-3.594 -1.06,-4.953c-1.134,-1.354 -2.886,-1.993 -4.592,-1.703c-42.915,7.364 -77.022,42.47 -84.897,87.525c-0.033,0.232 -0.825,5.819 -1.808,15.39c-0.028,0.262 -0.015,0.518 -0.006,0.773c-0.006,0.107 -0.03,0.208 -0.03,0.316c0,2.221 1.52,4.064 3.526,4.463c0.299,0.095 0.61,0.169 0.933,0.205c0.181,0.022 0.36,0.031 0.539,0.031c0.387,0 0.76,-0.061 1.125,-0.151l192.603,-0c2.396,-0 4.338,-2.036 4.338,-4.548c0,-2.512 -1.942,-4.548 -4.338,-4.548" style="fill:#638c1b;fill-rule:nonzero;"/><path d="M127.719,392.137l-123.38,0c-2.396,0 -4.339,-2.036 -4.339,-4.548c0,-2.511 1.943,-4.548 4.339,-4.548l123.38,0c2.396,0 4.339,2.037 4.339,4.548c-0,2.512 -1.943,4.548 -4.339,4.548" style="fill:#638c1b;fill-rule:nonzero;"/><path d="M436.908,392.137l-124.335,0c-2.396,0 -4.339,-2.036 -4.339,-4.548c0,-2.511 1.943,-4.548 4.339,-4.548l124.335,0c2.396,0 4.338,2.037 4.338,4.548c0,2.512 -1.942,4.548 -4.338,4.548" style="fill:#638c1b;fill-rule:nonzero;"/></g></g></svg>